HIERARCHY
ROOT Hips
{
	OFFSET 0.000000 0.000000 0.000000
	CHANNELS 6 Xposition Yposition Zposition Xrotation Yrotation Zrotation
	JOINT LeftUpLeg_virtual
	{
		OFFSET 0.000000 0.000000 0.000000
		CHANNELS 3 Xrotation Yrotation Zrotation
		JOINT LeftUpLeg
		{
			OFFSET 10.205400 -3.823500 0.155100
			CHANNELS 3 Xrotation Yrotation Zrotation
			JOINT LeftLeg
			{
				OFFSET 0.708757 -12.982077 0.567790
				CHANNELS 3 Xrotation Yrotation Zrotation
				JOINT LeftFoot
				{
					OFFSET -0.708756 -10.717838 -2.184338
					CHANNELS 3 Xrotation Yrotation Zrotation
					JOINT LeftToeBase
					{
						OFFSET 0.108149 -7.191104 7.560241
						CHANNELS 3 Xrotation Yrotation Zrotation
						JOINT LeftToe_End
						{
							OFFSET 0.070230 0.081724 4.490308
							CHANNELS 3 Xrotation Yrotation Zrotation
							End Site
							{
								OFFSET 0 0 0
							}
						}
					}
				}
			}
		}
	}
	JOINT RightUpLeg_virtual
	{
		OFFSET 0.000000 0.000000 0.000000
		CHANNELS 3 Xrotation Yrotation Zrotation
		JOINT RightUpLeg
		{
			OFFSET -10.205400 -3.823500 0.005500
			CHANNELS 3 Xrotation Yrotation Zrotation
			JOINT RightLeg
			{
				OFFSET -0.708756 -12.982134 0.610632
				CHANNELS 3 Xrotation Yrotation Zrotation
				JOINT RightFoot
				{
					OFFSET 0.708754 -10.717769 -1.945823
					CHANNELS 3 Xrotation Yrotation Zrotation
					JOINT RightToeBase
					{
						OFFSET -0.108140 -7.191069 7.372968
						CHANNELS 3 Xrotation Yrotation Zrotation
						JOINT RightToe_End
						{
							OFFSET -0.070227 0.081735 4.479403
							CHANNELS 3 Xrotation Yrotation Zrotation
							End Site
							{
								OFFSET 0 0 0
							}
						}
					}
				}
			}
		}
	}
	JOINT Spine_virtual
	{
		OFFSET 0.000000 0.000000 0.000000
		CHANNELS 3 Xrotation Yrotation Zrotation
		JOINT Spine
		{
			OFFSET 0.000000 6.876099 0.125700
			CHANNELS 3 Xrotation Yrotation Zrotation
			JOINT Spine1
			{
				OFFSET 0.000000 5.730043 0.104720
				CHANNELS 3 Xrotation Yrotation Zrotation
				JOINT Spine1_split
				{
					OFFSET 0.000000 5.730043 0.104720
					CHANNELS 3 Xrotation Yrotation Zrotation
					JOINT Spine2
					{
						OFFSET 0.000000 5.730043 0.104720
						CHANNELS 3 Xrotation Yrotation Zrotation
						JOINT Neck_virtual
						{
							OFFSET 0.000000 0.000000 0.000000
							CHANNELS 3 Xrotation Yrotation Zrotation
							JOINT Neck
							{
								OFFSET 0.000000 10.314075 0.188496
								CHANNELS 3 Xrotation Yrotation Zrotation
								JOINT Head
								{
									OFFSET 0.000000 7.643700 -2.377400
									CHANNELS 3 Xrotation Yrotation Zrotation
									JOINT HeadTop_End
									{
										OFFSET 0.000000 43.788605 -13.619600
										CHANNELS 3 Xrotation Yrotation Zrotation
										End Site
										{
											OFFSET 0 0 0
										}
									}
								}
							}
						}
						JOINT LeftShoulder_virtual
						{
							OFFSET 0.000000 0.000000 0.000000
							CHANNELS 3 Xrotation Yrotation Zrotation
							JOINT LeftShoulder
							{
								OFFSET 2.196100 4.412489 0.087492
								CHANNELS 3 Xrotation Yrotation Zrotation
								JOINT LeftShoulder_split
								{
									OFFSET 2.196100 4.412489 0.087492
									CHANNELS 3 Xrotation Yrotation Zrotation
									JOINT LeftArm
									{
										OFFSET 8.771219 -2.981674 -0.026999
										CHANNELS 3 Xrotation Yrotation Zrotation
										JOINT LeftForeArm
										{
											OFFSET 8.512804 0.000000 -0.000000
											CHANNELS 3 Xrotation Yrotation Zrotation
											JOINT LeftHand
											{
												OFFSET 18.484802 0.000000 -0.000000
												CHANNELS 3 Xrotation Yrotation Zrotation
												End Site
												{
													OFFSET 0 0 0
												}
											}
										}
									}
								}
							}
						}
						JOINT RightShoulder_virtual
						{
							OFFSET 0.000000 0.000000 0.000000
							CHANNELS 3 Xrotation Yrotation Zrotation
							JOINT RightShoulder
							{
								OFFSET -2.196100 4.412496 0.070690
								CHANNELS 3 Xrotation Yrotation Zrotation
								JOINT RightShoulder_split
								{
									OFFSET -2.196100 4.412496 0.070690
									CHANNELS 3 Xrotation Yrotation Zrotation
									JOINT RightArm
									{
										OFFSET -8.771282 -2.981682 -0.094208
										CHANNELS 3 Xrotation Yrotation Zrotation
										JOINT RightForeArm
										{
											OFFSET -8.494598 0.000000 0.000000
											CHANNELS 3 Xrotation Yrotation Zrotation
											JOINT RightHand
											{
												OFFSET -18.483803 0.000000 0.000001
												CHANNELS 3 Xrotation Yrotation Zrotation
												End Site
												{
													OFFSET 0 0 0
												}
											}
										}
									}
								}
							}
						}
					}
				}
			}
		}
	}
}
MOTION
Frames: 6
Frame Time: 0.03333333
0.172323 27.293352 0.140396 0.000000 0.000000 0.000000 11.648929 7.022245 -1.070626 -55.932173 1.716614 4.038786 75.583550 7.014951 -0.527267 -29.696761 7.859757 -8.190026 -3.951321 -0.003320 1.256298 0.000000 0.000000 0.000000 11.972518 6.353374 -0.991729 -48.742354 -12.687766 -6.611902 76.638165 -5.784228 -5.844545 -35.608577 -10.570368 4.865381 2.581174 1.384625 -0.244843 0.000000 0.000000 0.000000 12.028857 4.217472 -1.042970 8.980911 0.950593 1.180793 8.955254 1.872170 -0.409896 1.015144 -1.123188 0.422088 0.000000 0.000000 0.000000 9.420682 0.825491 0.090333 -10.287018 -1.378156 5.904675 -25.770352 1.211490 -7.461154 0.000000 0.000000 0.000000 9.470192 0.564926 -0.000558 3.424069 -24.643111 3.603548 -2.566265 0.147677 -3.367023 -62.878728 -24.564130 -64.957510 177.549647 -72.309423 175.982460 0.000000 0.000000 0.000000 8.496836 0.564148 0.186607 -0.001185 12.275260 11.027006 0.152588 7.512604 0.675416 -62.688897 31.702603 50.550186 -178.767170 69.576173 178.152302 0.000000 0.000000 0.000000 
0.172659 27.295374 0.152147 0.000000 0.000000 0.000000 11.658924 7.019770 -1.081018 -55.940639 1.711310 4.056156 75.581302 7.022342 -0.535328 -29.698219 7.863766 -8.194268 -3.942442 -0.002052 1.250515 0.000000 0.000000 0.000000 11.983179 6.348688 -1.002118 -48.724124 -12.684464 -6.594141 76.634039 -5.786331 -5.845500 -35.609649 -10.570978 4.873118 2.567653 1.386021 -0.247934 0.000000 0.000000 0.000000 12.039428 4.212450 -1.054791 8.978053 0.954979 1.172512 8.951625 1.875057 -0.418240 1.024842 -1.104565 0.399247 0.000000 0.000000 0.000000 9.417058 0.829644 0.081433 -10.271802 -1.391864 5.926515 -25.763330 1.202007 -7.461106 0.000000 0.000000 0.000000 9.466939 0.570797 -0.002229 3.429000 -24.641328 3.611466 -2.534282 0.128328 -3.378103 -62.970888 -24.602739 -65.041316 177.574468 -72.201192 176.005219 0.000000 0.000000 0.000000 8.489695 0.565560 0.179748 -0.004998 12.259320 11.039586 0.133716 7.557078 0.694994 -62.743122 31.691436 50.610875 -178.769137 69.445921 178.138314 0.000000 0.000000 0.000000 
0.176373 27.297541 0.163736 0.000000 0.000000 0.000000 11.675178 7.012393 -1.100167 -55.956260 1.697894 4.085729 75.591671 7.024558 -0.543836 -29.709684 7.865140 -8.195532 -3.934340 -0.000575 1.241490 0.000000 0.000000 0.000000 11.999807 6.344171 -1.022986 -48.699266 -12.694436 -6.572897 76.618050 -5.789261 -5.848084 -35.607501 -10.569007 4.884530 2.558798 1.388396 -0.255907 0.000000 0.000000 0.000000 12.054601 4.192299 -1.071448 8.984006 0.971394 1.159618 8.932342 1.893299 -0.428096 1.033151 -1.086658 0.383840 0.000000 0.000000 0.000000 9.398890 0.848211 0.067614 -10.260721 -1.416873 5.974130 -25.761484 1.171049 -7.452501 0.000000 0.000000 0.000000 9.443046 0.592009 -0.005664 3.432453 -24.636760 3.619765 -2.517399 0.115506 -3.385714 -63.073792 -24.687234 -65.159089 177.563677 -72.091595 175.988853 0.000000 0.000000 0.000000 8.468678 0.582159 0.168660 -0.010940 12.239162 11.079137 0.142951 7.575960 0.707560 -62.828540 31.642829 50.676609 -178.746979 69.297023 178.095871 0.000000 0.000000 0.000000 
0.183407 27.298887 0.173082 0.000000 0.000000 0.000000 11.692199 7.002735 -1.120724 -55.974616 1.682020 4.115895 75.611369 7.021510 -0.550979 -29.726390 7.862754 -8.192634 -3.929424 0.000195 1.233715 0.000000 0.000000 0.000000 12.017514 6.338130 -1.046160 -48.679066 -12.711546 -6.558807 76.595531 -5.791107 -5.852107 -35.599127 -10.566987 4.900533 2.554566 1.391975 -0.266277 0.000000 0.000000 0.000000 12.070120 4.161541 -1.085715 8.996154 0.995553 1.144315 8.902667 1.921670 -0.437347 1.030406 -1.065312 0.378931 0.000000 0.000000 0.000000 9.370276 0.877062 0.052296 -10.260565 -1.446245 6.035048 -25.774941 1.127797 -7.440001 0.000000 0.000000 0.000000 9.406844 0.621979 -0.012152 3.433929 -24.635229 3.624548 -2.520757 0.133068 -3.391584 -63.150481 -24.777664 -65.255976 177.525496 -72.043920 175.949839 0.000000 0.000000 0.000000 8.437871 0.609806 0.156603 -0.017680 12.216673 11.135681 0.169087 7.568152 0.716395 -62.912128 31.575766 50.714127 -178.717569 69.193095 178.046065 0.000000 0.000000 0.000000 
0.192302 27.299574 0.180565 0.000000 0.000000 0.000000 11.704993 6.997530 -1.136288 -55.986729 1.672828 4.135334 75.629121 7.016001 -0.556854 -29.743934 7.858122 -8.183292 -3.927932 -0.000342 1.230895 0.000000 0.000000 0.000000 12.031364 6.334160 -1.063298 -48.667116 -12.727275 -6.557400 76.574316 -5.789944 -5.858973 -35.584558 -10.568480 4.923456 2.548265 1.395338 -0.274981 0.000000 0.000000 0.000000 12.083846 4.134229 -1.093268 9.011730 1.019685 1.127892 8.869031 1.951995 -0.445304 1.027733 -1.043986 0.383968 0.000000 0.000000 0.000000 9.337513 0.907463 0.039091 -10.277228 -1.473240 6.092870 -25.808303 1.088714 -7.428273 0.000000 0.000000 0.000000 9.367815 0.651477 -0.021175 3.434626 -24.640268 3.625573 -2.535940 0.179237 -3.404263 -63.178826 -24.852579 -65.294846 177.482056 -72.078877 175.915429 0.000000 0.000000 0.000000 8.403967 0.641035 0.146035 -0.023269 12.196087 11.193312 0.202075 7.547290 0.713433 -62.976270 31.515521 50.714633 -178.695275 69.169353 178.008650 0.000000 0.000000 0.000000 
0.201649 27.300148 0.185390 0.000000 0.000000 0.000000 11.713595 6.999143 -1.141145 -55.988673 1.677999 4.136052 75.633383 7.012160 -0.561706 -29.757369 7.854558 -8.169211 -3.928493 -0.001717 1.233022 0.000000 0.000000 0.000000 12.039913 6.333939 -1.069735 -48.664644 -12.734448 -6.568506 76.559365 -5.785642 -5.869845 -35.566216 -10.576215 4.952554 2.537981 1.397509 -0.279429 0.000000 0.000000 0.000000 12.093561 4.118493 -1.089708 9.026793 1.036298 1.113436 8.837556 1.975533 -0.451930 1.023535 -1.039030 0.388728 0.000000 0.000000 0.000000 9.309153 0.931101 0.029931 -10.309145 -1.491384 6.135389 -25.853565 1.070178 -7.418227 0.000000 0.000000 0.000000 9.334901 0.672231 -0.033176 3.434623 -24.647626 3.623006 -2.558324 0.230004 -3.425497 -63.163738 -24.885653 -65.270838 177.448888 -72.174623 175.900444 0.000000 0.000000 0.000000 8.375283 0.667144 0.137602 -0.025367 12.178751 11.236742 0.231055 7.524222 0.699011 -63.018488 31.490939 50.696058 -178.691040 69.215416 177.997394 0.000000 0.000000 0.000000 
